<svg width="163" height="29" viewBox="0 0 163 29" fill="none" xmlns="http://www.w3.org/2000/svg">
<path fill-rule="evenodd" clip-rule="evenodd" d="M153.226 6.09648C151.18 4.31166 148.19 3.70388 145.403 4.77095C141.403 6.30214 139.335 10.7023 140.782 14.599C141.407 16.2813 142.585 17.5947 144.045 18.421C142.441 17.0191 141.466 14.9451 141.547 12.6376C141.693 8.45097 145.257 5.0812 149.508 5.11074C150.87 5.1203 152.137 5.47793 153.226 6.09648Z" fill="url(#paint0_linear)"/>
<path d="M6.60531 4.69799H9.57892L16.1599 21.4675H12.6988L11.0901 17.2869H5.04538L3.46108 21.4675H0L6.60531 4.69799ZM10.4807 14.9959L8.09211 8.40618L5.60598 14.9959H10.4807ZM21.909 10.7208V21.4675H18.5454V4.69799H21.1534L30.1718 15.7045V4.72161H33.5354V21.4675H30.8055L21.909 10.7208ZM42.5462 4.69799H45.5198L52.1007 21.4675H48.6397L47.031 17.2869H40.9863L39.402 21.4675H35.9409L42.5462 4.69799ZM46.4216 14.9959L44.033 8.40618L41.5469 14.9959H46.4216ZM54.4863 21.4675V4.69799H57.8499V18.6096H66.6732V21.4675H54.4863ZM75.4981 21.5856C74.2307 21.5856 73.077 21.3494 72.037 20.877C71.0133 20.3889 70.1278 19.7511 69.3803 18.9639C68.6491 18.1608 68.0804 17.2475 67.6741 16.2241C67.268 15.2006 67.0648 14.1534 67.0648 13.0828C67.0648 11.9648 67.276 10.894 67.6985 9.87056C68.1372 8.84707 68.7304 7.94167 69.4778 7.15437C70.2416 6.36707 71.1434 5.7451 72.1833 5.28847C73.2233 4.81609 74.3525 4.5799 75.5712 4.5799C76.8225 4.5799 77.9599 4.83184 78.9836 5.3357C80.0236 5.82384 80.9091 6.46942 81.6403 7.27247C82.3715 8.07551 82.9403 8.98879 83.3465 10.0123C83.7528 11.0358 83.9558 12.075 83.9558 13.13C83.9558 14.2479 83.7447 15.3187 83.3221 16.3422C82.8997 17.35 82.3147 18.2475 81.5672 19.0348C80.8198 19.8064 79.9261 20.4283 78.8861 20.9007C77.8462 21.3572 76.7168 21.5856 75.4981 21.5856ZM70.4771 13.0828C70.4771 13.8071 70.5909 14.5077 70.8183 15.1848C71.0459 15.862 71.3708 16.4603 71.7933 16.9799C72.232 17.4995 72.7602 17.9168 73.3776 18.2317C74.0113 18.5466 74.7264 18.7041 75.5225 18.7041C76.335 18.7041 77.0499 18.5466 77.6674 18.2317C78.3011 17.901 78.8292 17.4681 79.2517 16.9327C79.6904 16.3972 80.0155 15.7989 80.2266 15.1376C80.4542 14.4605 80.5679 13.7756 80.5679 13.0828C80.5679 12.3584 80.446 11.6577 80.2023 10.9807C79.9748 10.3036 79.6417 9.70523 79.2029 9.18561C78.7805 8.66599 78.2523 8.2566 77.6186 7.95742C77.0012 7.6425 76.3024 7.48504 75.5225 7.48504C74.7101 7.48504 73.9869 7.65037 73.3532 7.98104C72.7195 8.29595 72.1915 8.7211 71.7689 9.25647C71.3465 9.77609 71.0215 10.3744 70.794 11.0515C70.5828 11.7128 70.4771 12.3899 70.4771 13.0828ZM99.0399 19.578C97.6586 20.9165 96.05 21.5856 94.2139 21.5856C93.0764 21.5856 92.0039 21.3652 90.9965 20.9243C90.0053 20.4833 89.1359 19.8772 88.3885 19.1056C87.6573 18.334 87.0723 17.4287 86.6336 16.3894C86.211 15.3344 85.9999 14.2007 85.9999 12.9883C85.9999 11.8388 86.211 10.7602 86.6336 9.75247C87.0723 8.72898 87.6654 7.83932 88.4129 7.08351C89.1765 6.31195 90.0703 5.70574 91.094 5.26485C92.1177 4.80822 93.2307 4.5799 94.4332 4.5799C96.058 4.5799 97.4473 4.91056 98.6012 5.57189C99.7711 6.23323 100.649 7.12288 101.234 8.24085L98.723 10.0359C98.2843 9.20136 97.6667 8.56365 96.8706 8.12275C96.0906 7.68186 95.2376 7.46142 94.3113 7.46142C93.5801 7.46142 92.9057 7.611 92.2883 7.91018C91.687 8.20936 91.1671 8.61875 90.7284 9.13837C90.3058 9.65799 89.9728 10.2563 89.7291 10.9334C89.5015 11.6105 89.3878 12.3269 89.3878 13.0828C89.3878 13.87 89.5178 14.6102 89.7778 15.3029C90.0377 15.9801 90.3952 16.5705 90.8503 17.0744C91.3051 17.5782 91.8414 17.9797 92.4589 18.2789C93.0927 18.5624 93.7751 18.7041 94.5063 18.7041C96.1799 18.7041 97.6911 17.9405 99.0399 16.413V15.2321H95.5544V12.8466H101.818V21.4675H99.0399V19.578ZM105.172 21.4675V4.69799H112.509C113.305 4.69799 114.036 4.86332 114.703 5.19399C115.385 5.50891 115.97 5.93405 116.458 6.46942C116.945 6.98904 117.327 7.58738 117.603 8.26447C117.879 8.9258 118.017 9.595 118.017 10.2721C118.017 10.9807 117.888 11.6735 117.628 12.3506C117.368 13.0119 117.002 13.6024 116.531 14.122C116.06 14.6416 115.491 15.0589 114.825 15.3738C114.158 15.6887 113.427 15.8462 112.631 15.8462H108.536V21.4675H105.172ZM108.536 12.9883H112.436C113.053 12.9883 113.565 12.7442 113.971 12.2561C114.394 11.768 114.605 11.1066 114.605 10.2721C114.605 9.84694 114.54 9.46904 114.41 9.13837C114.28 8.79195 114.11 8.50066 113.898 8.26447C113.687 8.02828 113.435 7.85507 113.143 7.74485C112.867 7.61888 112.582 7.5559 112.29 7.5559H108.536V12.9883ZM120.846 21.4675V4.69799H128.499C129.296 4.69799 130.027 4.86332 130.693 5.19399C131.376 5.50891 131.961 5.93405 132.448 6.46942C132.936 6.98904 133.317 7.58738 133.594 8.26447C133.87 8.9258 134.008 9.595 134.008 10.2721C134.008 11.3586 133.724 12.3506 133.155 13.2481C132.602 14.1298 131.847 14.7675 130.888 15.1612L134.837 21.4675H131.059L127.525 15.8462H124.21V21.4675H120.846ZM124.21 12.9883H128.426C128.735 12.9883 129.019 12.9174 129.279 12.7757C129.556 12.634 129.791 12.445 129.986 12.2088C130.181 11.9569 130.336 11.6656 130.449 11.3349C130.563 11.0043 130.62 10.65 130.62 10.2721C130.62 9.87843 130.555 9.51628 130.425 9.18561C130.295 8.85494 130.116 8.57151 129.889 8.33532C129.677 8.08338 129.426 7.89443 129.133 7.76847C128.857 7.62675 128.573 7.5559 128.28 7.5559H124.21V12.9883Z" fill="black"/>
<path d="M137.626 19.5596L140 22.5357L133.082 28.1383C132.266 28.799 131.074 28.6683 130.418 27.8464C129.762 27.0245 129.892 25.8226 130.708 25.162L137.626 19.5596Z" fill="url(#paint1_linear)"/>
<path fill-rule="evenodd" clip-rule="evenodd" d="M160 20.2052C157.273 22.9973 153.261 24.4962 149.068 23.8934C142.173 22.9019 137.401 16.6011 138.411 9.82022C138.7 7.86416 139.441 6.08182 140.512 4.55957C138.753 6.35935 137.529 8.69642 137.135 11.3542C136.126 18.1352 140.898 24.4359 147.793 25.4274C152.699 26.1329 157.357 23.9602 160 20.2052Z" fill="url(#paint2_linear)"/>
<path fill-rule="evenodd" clip-rule="evenodd" d="M158.547 19.405C161.389 16.6813 162.441 12.5599 161.184 8.5918C159.381 2.89785 153.159 -0.313287 147.289 1.41964C144.754 2.16791 142.699 3.7154 141.327 5.69073C143.559 3.55709 146.706 2.3495 150.079 2.63154C156.199 3.14319 160.746 8.36521 160.234 14.2951C160.07 16.1949 159.574 17.9316 158.547 19.405Z" fill="url(#paint3_linear)"/>
<defs>
<linearGradient id="paint0_linear" x1="152" y1="3.05957" x2="133.604" y2="21.9463" gradientUnits="userSpaceOnUse">
<stop stop-color="#0075FF"/>
<stop offset="1"/>
</linearGradient>
<linearGradient id="paint1_linear" x1="130.437" y1="27.5673" x2="153.125" y2="9.71883" gradientUnits="userSpaceOnUse">
<stop/>
<stop offset="1" stop-color="#0E66CC"/>
</linearGradient>
<linearGradient id="paint2_linear" x1="156.5" y1="9.05957" x2="134.198" y2="24.376" gradientUnits="userSpaceOnUse">
<stop stop-color="#0075FF"/>
<stop offset="1"/>
</linearGradient>
<linearGradient id="paint3_linear" x1="157.5" y1="4.05951" x2="137.529" y2="23.1736" gradientUnits="userSpaceOnUse">
<stop stop-color="#0075FF"/>
<stop offset="1"/>
</linearGradient>
</defs>
</svg>
