<svg width="28" height="28" viewBox="0 0 28 28" fill="none" xmlns="http://www.w3.org/2000/svg">
<g clip-path="url(#clip0)">
<path d="M26.1365 12.1366C25.2895 12.1398 24.5512 12.7141 24.3394 13.5341H23.3416V14.4657H24.3394C24.5832 15.401 25.5024 15.9938 26.455 15.8298C27.4073 15.6658 28.0756 14.7998 27.9926 13.837C27.9095 12.8742 27.103 12.1352 26.1365 12.1366ZM26.1365 14.9315C25.622 14.9315 25.2049 14.5146 25.2049 13.9999C25.2049 13.4854 25.622 13.0682 26.1365 13.0682C26.6513 13.0682 27.0682 13.4854 27.0682 13.9999C27.0682 14.5146 26.6513 14.9315 26.1365 14.9315Z" fill="#333333"/>
<path d="M10.7643 3.7515C11.0388 3.74991 11.3093 3.68713 11.5563 3.56749L12.447 4.63676C12.1315 5.13739 12.0751 5.7588 12.2951 6.30811C12.5153 6.85741 12.9854 7.26797 13.5593 7.41218V8.4098H14.4909V7.41218C15.065 7.26797 15.535 6.85741 15.7551 6.30811C15.9753 5.7588 15.9189 5.13739 15.6034 4.63676L16.4941 3.56749C16.7412 3.68713 17.0116 3.74991 17.2859 3.7515C18.1537 3.75742 18.9122 3.1674 19.1199 2.3249C19.3278 1.4824 18.9304 0.607154 18.1596 0.209106C17.3885 -0.189169 16.445 -0.00652226 15.8782 0.65037C15.3114 1.30749 15.2693 2.26758 15.7763 2.97178L14.9251 3.99329C14.3686 3.67098 13.6819 3.67098 13.1253 3.99329L12.2741 2.97178C12.7725 2.27281 12.7275 1.32364 12.1654 0.674935C11.6032 0.0262314 10.6699 -0.153231 9.90724 0.240722C9.14458 0.634676 8.75063 1.49946 8.95443 2.33332C9.158 3.1674 9.90588 3.75332 10.7643 3.7515ZM17.2859 0.956526C17.8006 0.956526 18.2176 1.37368 18.2176 1.88819C18.2176 2.40292 17.8006 2.81984 17.2859 2.81984C16.7714 2.81984 16.3543 2.40292 16.3543 1.88819C16.3543 1.37368 16.7714 0.956526 17.2859 0.956526ZM14.0251 4.68316C14.5398 4.68316 14.9568 5.10032 14.9568 5.61482C14.9568 6.12955 14.5398 6.54648 14.0251 6.54648C13.5106 6.54648 13.0934 6.12955 13.0934 5.61482C13.0934 5.10032 13.5106 4.68316 14.0251 4.68316ZM10.7643 0.956526C11.279 0.956526 11.696 1.37368 11.696 1.88819C11.696 2.40292 11.279 2.81984 10.7643 2.81984C10.2498 2.81984 9.83264 2.40292 9.83264 1.88819C9.83264 1.37368 10.2498 0.956526 10.7643 0.956526Z" fill="#333333"/>
<path d="M17.8882 9.47807L18.5469 10.1368L20.5378 8.14586C20.8219 8.31714 21.1469 8.40835 21.4783 8.40994C22.5076 8.40994 23.3417 7.57586 23.3417 6.54662C23.3417 5.51761 22.5076 4.6833 21.4783 4.6833C20.4493 4.6833 19.615 5.51761 19.615 6.54662C19.6168 6.87825 19.7081 7.20329 19.8793 7.48715L17.8882 9.47807ZM21.4783 5.61496C21.9931 5.61496 22.41 6.03212 22.41 6.54662C22.41 7.06135 21.9931 7.47828 21.4783 7.47828C20.9638 7.47828 20.5467 7.06135 20.5467 6.54662C20.5467 6.03212 20.9638 5.61496 21.4783 5.61496Z" fill="#333333"/>
<path d="M23.0125 4.35422L23.5581 3.80833L24.2168 4.46704L23.6712 5.01293L23.0125 4.35422Z" fill="#333333"/>
<path d="M24.8755 3.80851L25.196 3.48803C25.4801 3.6593 25.8051 3.75051 26.1365 3.7521C27.1658 3.7521 27.9999 2.91802 27.9999 1.88879C27.9999 0.859775 27.1658 0.0254669 26.1365 0.0254669C25.1075 0.0254669 24.2732 0.859775 24.2732 1.88879C24.275 2.22042 24.3663 2.54545 24.5375 2.82932L24.217 3.1498L24.8755 3.80851ZM26.1365 0.957126C26.6513 0.957126 27.0682 1.37428 27.0682 1.88879C27.0682 2.40352 26.6513 2.82044 26.1365 2.82044C25.622 2.82044 25.2049 2.40352 25.2049 1.88879C25.2049 1.37428 25.622 0.957126 26.1365 0.957126Z" fill="#333333"/>
<path d="M6.57157 8.40994C6.9032 8.40835 7.22824 8.31714 7.5121 8.14586L9.50302 10.1368L10.1617 9.47807L8.17081 7.48715C8.34209 7.20329 8.4333 6.87825 8.43489 6.54662C8.43489 5.51761 7.60081 4.6833 6.57157 4.6833C5.54256 4.6833 4.70825 5.51761 4.70825 6.54662C4.70825 7.57586 5.54256 8.40994 6.57157 8.40994ZM6.57157 5.61496C7.0863 5.61496 7.50323 6.03212 7.50323 6.54662C7.50323 7.06135 7.0863 7.47828 6.57157 7.47828C6.05706 7.47828 5.63991 7.06135 5.63991 6.54662C5.63991 6.03212 6.05706 5.61496 6.57157 5.61496Z" fill="#333333"/>
<path d="M1.91337 3.7521C2.245 3.75051 2.57003 3.6593 2.8539 3.48803L3.17438 3.80851L3.83309 3.1498L3.51261 2.82932C3.68388 2.54545 3.77509 2.22042 3.77669 1.88879C3.77669 0.859775 2.9426 0.0254669 1.91337 0.0254669C0.884357 0.0254669 0.0500488 0.859775 0.0500488 1.88879C0.0500488 2.91802 0.884357 3.7521 1.91337 3.7521ZM1.91337 0.957126C2.4281 0.957126 2.84503 1.37428 2.84503 1.88879C2.84503 2.40352 2.4281 2.82044 1.91337 2.82044C1.39886 2.82044 0.981708 2.40352 0.981708 1.88879C0.981708 1.37428 1.39886 0.957126 1.91337 0.957126Z" fill="#333333"/>
<path d="M3.8335 4.46704L4.49221 3.80833L5.0381 4.35422L4.37916 5.01293L3.8335 4.46704Z" fill="#333333"/>
<path d="M21.4783 19.5899C21.1469 19.5917 20.8219 19.6829 20.5378 19.8542L18.5469 17.8631L17.8882 18.5218L19.8793 20.5127C19.7081 20.7968 19.6168 21.1218 19.615 21.4532C19.615 22.4825 20.4493 23.3165 21.4783 23.3165C22.5076 23.3165 23.3417 22.4825 23.3417 21.4532C23.3417 20.4242 22.5076 19.5899 21.4783 19.5899ZM21.4783 22.3849C20.9638 22.3849 20.5467 21.9679 20.5467 21.4532C20.5467 20.9387 20.9638 20.5216 21.4783 20.5216C21.9931 20.5216 22.41 20.9387 22.41 21.4532C22.41 21.9679 21.9931 22.3849 21.4783 22.3849Z" fill="#333333"/>
<path d="M26.1365 24.2482C25.8051 24.25 25.4801 24.3413 25.196 24.5125L24.8755 24.192L24.217 24.8505L24.5375 25.171C24.3663 25.4551 24.275 25.7801 24.2732 26.1115C24.2732 27.1408 25.1075 27.9749 26.1365 27.9749C27.1658 27.9749 27.9999 27.1408 27.9999 26.1115C27.9999 25.0825 27.1658 24.2482 26.1365 24.2482ZM26.1365 27.0432C25.622 27.0432 25.2049 26.6263 25.2049 26.1115C25.2049 25.597 25.622 25.1799 26.1365 25.1799C26.6513 25.1799 27.0682 25.597 27.0682 26.1115C27.0682 26.6263 26.6513 27.0432 26.1365 27.0432Z" fill="#333333"/>
<path d="M17.2858 24.2482C17.0112 24.2507 16.7408 24.3144 16.494 24.4347L15.6033 23.3632C15.9188 22.8626 15.9752 22.2412 15.755 21.6919C15.5348 21.1425 15.0649 20.732 14.4908 20.5878V19.5899H13.5592V20.5878C12.9853 20.732 12.5151 21.1425 12.295 21.6919C12.075 22.2412 12.1314 22.8626 12.4469 23.3632L11.5562 24.4347C11.3094 24.3144 11.0387 24.2507 10.7642 24.2482C9.89643 24.2425 9.13809 24.8326 8.9302 25.6751C8.72253 26.5176 9.11967 27.3926 9.89074 27.7909C10.6618 28.1891 11.6053 28.0065 12.1721 27.3496C12.7389 26.6925 12.781 25.7324 12.274 25.0282L13.1252 24.0064C13.6817 24.329 14.3684 24.329 14.925 24.0064L15.7762 25.0282C15.2778 25.7271 15.3228 26.6763 15.8849 27.325C16.4472 27.9737 17.3804 28.1532 18.1431 27.7592C18.9057 27.3653 19.2995 26.5005 19.0959 25.6664C18.8923 24.8326 18.1442 24.2464 17.2858 24.2482ZM10.7642 27.0432C10.2497 27.0432 9.83251 26.6263 9.83251 26.1115C9.83251 25.597 10.2497 25.1799 10.7642 25.1799C11.2789 25.1799 11.6958 25.597 11.6958 26.1115C11.6958 26.6263 11.2789 27.0432 10.7642 27.0432ZM14.025 23.3166C13.5105 23.3166 13.0933 22.8996 13.0933 22.3849C13.0933 21.8704 13.5105 21.4533 14.025 21.4533C14.5397 21.4533 14.9566 21.8704 14.9566 22.3849C14.9566 22.8996 14.5397 23.3166 14.025 23.3166ZM17.2858 27.0432C16.7713 27.0432 16.3541 26.6263 16.3541 26.1115C16.3541 25.597 16.7713 25.1799 17.2858 25.1799C17.8005 25.1799 18.2174 25.597 18.2174 26.1115C18.2174 26.6263 17.8005 27.0432 17.2858 27.0432Z" fill="#333333"/>
<path d="M23.0125 23.6458L23.6712 22.9871L24.2168 23.5327L23.5581 24.1917L23.0125 23.6458Z" fill="#333333"/>
<path d="M3.17438 24.192L2.8539 24.5125C2.57003 24.3413 2.245 24.25 1.91337 24.2482C0.884357 24.2482 0.0500488 25.0825 0.0500488 26.1115C0.0500488 27.1408 0.884357 27.9749 1.91337 27.9749C2.9426 27.9749 3.77669 27.1408 3.77669 26.1115C3.77509 25.7801 3.68388 25.4551 3.51261 25.171L3.83309 24.8505L3.17438 24.192ZM1.91337 27.0432C1.39886 27.0432 0.981708 26.6263 0.981708 26.1115C0.981708 25.597 1.39886 25.1799 1.91337 25.1799C2.4281 25.1799 2.84503 25.597 2.84503 26.1115C2.84503 26.6263 2.4281 27.0432 1.91337 27.0432Z" fill="#333333"/>
<path d="M10.1617 18.5218L9.50302 17.8631L7.5121 19.8542C7.22824 19.6829 6.9032 19.5917 6.57157 19.5899C5.54256 19.5899 4.70825 20.4242 4.70825 21.4532C4.70825 22.4825 5.54256 23.3165 6.57157 23.3165C7.60081 23.3165 8.43489 22.4825 8.43489 21.4532C8.4333 21.1218 8.34209 20.7968 8.17081 20.5127L10.1617 18.5218ZM6.57157 22.3849C6.05706 22.3849 5.63991 21.9679 5.63991 21.4532C5.63991 20.9387 6.05706 20.5216 6.57157 20.5216C7.0863 20.5216 7.50323 20.9387 7.50323 21.4532C7.50323 21.9679 7.0863 22.3849 6.57157 22.3849Z" fill="#333333"/>
<path d="M3.8335 23.5327L4.37916 22.9871L5.0381 23.6458L4.49221 24.1917L3.8335 23.5327Z" fill="#333333"/>
<path d="M19.615 13.5341H20.5466V14.4658H19.615V13.5341Z" fill="#333333"/>
<path d="M21.4783 13.5341H22.4099V14.4658H21.4783V13.5341Z" fill="#333333"/>
<path d="M1.91356 15.8632C2.76083 15.86 3.49915 15.2859 3.71091 14.4657H4.70853V13.534H3.71091C3.46708 12.5989 2.5477 12.0062 1.59534 12.1702C0.642987 12.334 -0.0252785 13.2001 0.0577429 14.1629C0.140764 15.1257 0.947323 15.8647 1.91356 15.8632ZM1.91356 13.0682C2.42829 13.0682 2.84521 13.4853 2.84521 13.9998C2.84521 14.5146 2.42829 14.9315 1.91356 14.9315C1.39905 14.9315 0.981896 14.5146 0.981896 13.9998C0.981896 13.4853 1.39905 13.0682 1.91356 13.0682Z" fill="#333333"/>
<path d="M7.50342 13.5341H8.43508V14.4658H7.50342V13.5341Z" fill="#333333"/>
<path d="M5.64014 13.5341H6.57179V14.4658H5.64014V13.5341Z" fill="#333333"/>
<path d="M14.025 9.34157C11.4525 9.34157 9.3667 11.4273 9.3667 13.9999C9.3667 16.5726 11.4525 18.6582 14.025 18.6582C16.5978 18.6582 18.6833 16.5726 18.6833 13.9999C18.6806 11.4285 16.5966 9.34452 14.025 9.34157ZM11.6958 16.9045V16.8722C11.9831 16.0497 12.4517 15.3021 13.067 14.6852L13.0845 14.6674C13.6622 15.0198 14.388 15.0198 14.9655 14.6674L14.9833 14.6852C15.5985 15.3021 16.0671 16.0497 16.3541 16.8722V16.9045C14.9949 18.0006 13.0554 18.0006 11.6958 16.9045ZM14.025 13.9999C13.5105 13.9999 13.0933 13.5829 13.0933 13.0682C13.0933 12.5537 13.5105 12.1365 14.025 12.1365C14.5397 12.1365 14.9567 12.5537 14.9567 13.0682C14.9567 13.5829 14.5397 13.9999 14.025 13.9999ZM17.0631 16.1507C16.7297 15.3582 16.2472 14.6372 15.642 14.0265L15.6242 14.0087C15.7955 13.7249 15.8867 13.3998 15.8883 13.0682C15.8883 12.0392 15.0542 11.2049 14.025 11.2049C12.996 11.2049 12.1617 12.0392 12.1617 13.0682C12.1635 13.3998 12.2547 13.7249 12.426 14.0087L12.4082 14.0265C11.803 14.6372 11.3205 15.3582 10.9869 16.1507C9.88826 14.604 10.1269 12.4786 11.5414 11.2142C12.9557 9.94979 15.0945 9.94979 16.5088 11.2142C17.9231 12.4786 18.162 14.604 17.0631 16.1507Z" fill="#333333"/>
</g>
<defs>
<clipPath id="clip0">
<rect width="28" height="28" fill="white"/>
</clipPath>
</defs>
</svg>
